<svg xmlns="http://www.w3.org/2000/svg" xmlns:xlink="http://www.w3.org/1999/xlink" width="500" zoomAndPan="magnify" viewBox="0 0 375 374.999991" height="500" preserveAspectRatio="xMidYMid meet" version="1.0"><defs><clipPath id="3733138c50"><path d="M 78.273438 108.886719 L 208.285156 108.886719 L 208.285156 187.597656 L 78.273438 187.597656 Z M 78.273438 108.886719 " clip-rule="nonzero"/></clipPath><clipPath id="773911257d"><path d="M 91.539062 116.402344 C 91.539062 111.980469 95.078125 108.886719 99.058594 108.886719 C 103.039062 108.886719 106.574219 111.980469 106.574219 116.402344 L 106.574219 118.613281 C 106.574219 122.59375 103.039062 126.132812 99.058594 126.132812 C 95.078125 126.132812 91.539062 122.59375 91.539062 118.613281 L 91.539062 116.402344 M 99.058594 155.757812 L 96.847656 183.175781 C 96.847656 185.386719 94.636719 187.597656 91.984375 187.597656 L 90.65625 187.597656 C 89.773438 187.597656 89.328125 187.15625 89.328125 186.273438 L 89.328125 140.28125 L 86.234375 153.992188 C 85.792969 156.203125 84.023438 157.96875 81.371094 157.96875 L 79.601562 157.96875 C 79.160156 157.96875 79.160156 157.96875 78.714844 157.527344 C 78.714844 157.085938 78.273438 157.085938 78.273438 156.644531 L 82.695312 135.859375 C 83.582031 131.4375 87.558594 128.34375 91.539062 128.34375 L 106.574219 128.34375 C 110.554688 128.34375 114.535156 131.4375 115.417969 135.859375 L 119.84375 156.644531 C 119.84375 157.085938 119.398438 157.085938 119.398438 157.527344 C 118.957031 157.96875 118.957031 157.96875 118.515625 157.96875 L 116.746094 157.96875 C 114.09375 157.96875 112.324219 156.203125 111.882812 153.992188 L 108.785156 140.28125 L 108.785156 186.273438 C 108.785156 187.15625 108.34375 187.597656 107.460938 187.597656 L 106.132812 187.597656 C 103.480469 187.597656 101.269531 185.386719 101.269531 183.175781 L 99.058594 155.757812 M 135.761719 116.402344 C 135.761719 111.980469 139.300781 108.886719 143.277344 108.886719 C 147.257812 108.886719 150.796875 111.980469 150.796875 116.402344 L 150.796875 118.613281 C 150.796875 122.59375 147.257812 126.132812 143.277344 126.132812 C 139.300781 126.132812 135.761719 122.59375 135.761719 118.613281 L 135.761719 116.402344 M 143.277344 155.757812 L 141.066406 183.175781 C 141.066406 185.386719 138.855469 187.597656 136.203125 187.597656 L 134.878906 187.597656 C 133.992188 187.597656 133.550781 187.15625 133.550781 186.273438 L 133.550781 140.28125 L 130.453125 153.992188 C 130.011719 156.203125 128.242188 157.96875 125.589844 157.96875 L 123.820312 157.96875 C 123.378906 157.96875 123.378906 157.96875 122.9375 157.527344 C 122.9375 157.085938 122.496094 157.085938 122.496094 156.644531 L 126.917969 135.859375 C 127.800781 131.4375 131.78125 128.34375 135.761719 128.34375 L 150.796875 128.34375 C 154.777344 128.34375 158.757812 131.4375 159.640625 135.859375 L 164.0625 156.644531 C 164.0625 157.085938 163.621094 157.085938 163.621094 157.527344 C 163.179688 157.96875 163.179688 157.96875 162.734375 157.96875 L 160.96875 157.96875 C 158.3125 157.96875 156.546875 156.203125 156.101562 153.992188 L 153.007812 140.28125 L 153.007812 186.273438 C 153.007812 187.15625 152.566406 187.597656 151.679688 187.597656 L 150.355469 187.597656 C 147.699219 187.597656 145.488281 185.386719 145.488281 183.175781 L 143.277344 155.757812 M 179.980469 116.402344 C 179.980469 111.980469 183.519531 108.886719 187.5 108.886719 C 191.480469 108.886719 195.015625 111.980469 195.015625 116.402344 L 195.015625 118.613281 C 195.015625 122.59375 191.480469 126.132812 187.5 126.132812 C 183.519531 126.132812 179.980469 122.59375 179.980469 118.613281 L 179.980469 116.402344 M 187.5 155.757812 L 185.289062 183.175781 C 185.289062 185.386719 183.078125 187.597656 180.425781 187.597656 L 179.097656 187.597656 C 178.214844 187.597656 177.769531 187.15625 177.769531 186.273438 L 177.769531 140.28125 L 174.675781 153.992188 C 174.234375 156.203125 172.464844 157.96875 169.8125 157.96875 L 168.042969 157.96875 C 167.601562 157.96875 167.601562 157.96875 167.160156 157.527344 C 167.160156 157.085938 166.714844 157.085938 166.714844 156.644531 L 171.136719 135.859375 C 172.023438 131.4375 176.003906 128.34375 179.980469 128.34375 L 195.015625 128.34375 C 198.996094 128.34375 202.976562 131.4375 203.863281 135.859375 L 208.285156 156.644531 C 208.285156 157.085938 207.839844 157.085938 207.839844 157.527344 C 207.398438 157.96875 207.398438 157.96875 206.957031 157.96875 L 205.1875 157.96875 C 202.535156 157.96875 200.765625 156.203125 200.324219 153.992188 L 197.230469 140.28125 L 197.230469 186.273438 C 197.230469 187.15625 196.785156 187.597656 195.902344 187.597656 L 194.574219 187.597656 C 191.921875 187.597656 189.710938 185.386719 189.710938 183.175781 L 187.5 155.757812 " clip-rule="nonzero"/></clipPath><clipPath id="992897e6c3"><path d="M 78.273438 108.886719 L 296.726562 108.886719 L 296.726562 266.3125 L 78.273438 266.3125 Z M 78.273438 108.886719 " clip-rule="nonzero"/></clipPath><clipPath id="d0d207c612"><path d="M 224.203125 116.402344 C 224.203125 111.980469 227.742188 108.886719 231.722656 108.886719 C 235.699219 108.886719 239.238281 111.980469 239.238281 116.402344 L 239.238281 118.613281 C 239.238281 122.59375 235.699219 126.132812 231.722656 126.132812 C 227.742188 126.132812 224.203125 122.59375 224.203125 118.613281 L 224.203125 116.402344 M 231.722656 155.757812 L 229.511719 183.175781 C 229.511719 185.386719 227.300781 187.597656 224.644531 187.597656 L 223.320312 187.597656 C 222.433594 187.597656 221.992188 187.15625 221.992188 186.273438 L 221.992188 140.28125 L 218.898438 153.992188 C 218.453125 156.203125 216.6875 157.96875 214.03125 157.96875 L 212.265625 157.96875 C 211.820312 157.96875 211.820312 157.96875 211.378906 157.527344 C 211.378906 157.085938 210.9375 157.085938 210.9375 156.644531 L 215.359375 135.859375 C 216.242188 131.4375 220.222656 128.34375 224.203125 128.34375 L 239.238281 128.34375 C 243.21875 128.34375 247.199219 131.4375 248.082031 135.859375 L 252.503906 156.644531 C 252.503906 157.085938 252.0625 157.085938 252.0625 157.527344 C 251.621094 157.96875 251.621094 157.96875 251.179688 157.96875 L 249.410156 157.96875 C 246.757812 157.96875 244.988281 156.203125 244.546875 153.992188 L 241.449219 140.28125 L 241.449219 186.273438 C 241.449219 187.15625 241.007812 187.597656 240.121094 187.597656 L 238.796875 187.597656 C 236.144531 187.597656 233.933594 185.386719 233.933594 183.175781 L 231.722656 155.757812 M 268.425781 116.402344 C 268.425781 111.980469 271.960938 108.886719 275.941406 108.886719 C 279.921875 108.886719 283.460938 111.980469 283.460938 116.402344 L 283.460938 118.613281 C 283.460938 122.59375 279.921875 126.132812 275.941406 126.132812 C 271.960938 126.132812 268.425781 122.59375 268.425781 118.613281 L 268.425781 116.402344 M 275.941406 155.757812 L 273.730469 183.175781 C 273.730469 185.386719 271.519531 187.597656 268.867188 187.597656 L 267.539062 187.597656 C 266.65625 187.597656 266.214844 187.15625 266.214844 186.273438 L 266.214844 140.28125 L 263.117188 153.992188 C 262.675781 156.203125 260.90625 157.96875 258.253906 157.96875 L 256.484375 157.96875 C 256.042969 157.96875 256.042969 157.96875 255.601562 157.527344 C 255.601562 157.085938 255.15625 157.085938 255.15625 156.644531 L 259.582031 135.859375 C 260.464844 131.4375 264.445312 128.34375 268.425781 128.34375 L 283.460938 128.34375 C 287.441406 128.34375 291.417969 131.4375 292.304688 135.859375 L 296.726562 156.644531 C 296.726562 157.085938 296.285156 157.085938 296.285156 157.527344 C 295.839844 157.96875 295.839844 157.96875 295.398438 157.96875 L 293.628906 157.96875 C 290.976562 157.96875 289.207031 156.203125 288.765625 153.992188 L 285.671875 140.28125 L 285.671875 186.273438 C 285.671875 187.15625 285.226562 187.597656 284.34375 187.597656 L 283.015625 187.597656 C 280.363281 187.597656 278.152344 185.386719 278.152344 183.175781 L 275.941406 155.757812 M 91.539062 195.117188 C 91.539062 190.695312 95.078125 187.597656 99.058594 187.597656 C 103.039062 187.597656 106.574219 190.695312 106.574219 195.117188 L 106.574219 197.328125 C 106.574219 201.308594 103.039062 204.84375 99.058594 204.84375 C 95.078125 204.84375 91.539062 201.308594 91.539062 197.328125 L 91.539062 195.117188 M 99.058594 234.472656 L 96.847656 261.890625 C 96.847656 264.101562 94.636719 266.3125 91.984375 266.3125 L 90.65625 266.3125 C 89.773438 266.3125 89.328125 265.871094 89.328125 264.984375 L 89.328125 218.996094 L 86.234375 232.703125 C 85.792969 234.914062 84.023438 236.683594 81.371094 236.683594 L 79.601562 236.683594 C 79.160156 236.683594 79.160156 236.683594 78.714844 236.242188 C 78.714844 235.800781 78.273438 235.800781 78.273438 235.355469 L 82.695312 214.574219 C 83.582031 210.152344 87.558594 207.054688 91.539062 207.054688 L 106.574219 207.054688 C 110.554688 207.054688 114.535156 210.152344 115.417969 214.574219 L 119.84375 235.355469 C 119.84375 235.800781 119.398438 235.800781 119.398438 236.242188 C 118.957031 236.683594 118.957031 236.683594 118.515625 236.683594 L 116.746094 236.683594 C 114.09375 236.683594 112.324219 234.914062 111.882812 232.703125 L 108.785156 218.996094 L 108.785156 264.984375 C 108.785156 265.871094 108.34375 266.3125 107.460938 266.3125 L 106.132812 266.3125 C 103.480469 266.3125 101.269531 264.101562 101.269531 261.890625 L 99.058594 234.472656 M 135.761719 195.117188 C 135.761719 190.695312 139.300781 187.597656 143.277344 187.597656 C 147.257812 187.597656 150.796875 190.695312 150.796875 195.117188 L 150.796875 197.328125 C 150.796875 201.308594 147.257812 204.84375 143.277344 204.84375 C 139.300781 204.84375 135.761719 201.308594 135.761719 197.328125 L 135.761719 195.117188 M 143.277344 234.472656 L 141.066406 261.890625 C 141.066406 264.101562 138.855469 266.3125 136.203125 266.3125 L 134.878906 266.3125 C 133.992188 266.3125 133.550781 265.871094 133.550781 264.984375 L 133.550781 218.996094 L 130.453125 232.703125 C 130.011719 234.914062 128.242188 236.683594 125.589844 236.683594 L 123.820312 236.683594 C 123.378906 236.683594 123.378906 236.683594 122.9375 236.242188 C 122.9375 235.800781 122.496094 235.800781 122.496094 235.355469 L 126.917969 214.574219 C 127.800781 210.152344 131.78125 207.054688 135.761719 207.054688 L 150.796875 207.054688 C 154.777344 207.054688 158.757812 210.152344 159.640625 214.574219 L 164.0625 235.355469 C 164.0625 235.800781 163.621094 235.800781 163.621094 236.242188 C 163.179688 236.683594 163.179688 236.683594 162.734375 236.683594 L 160.96875 236.683594 C 158.3125 236.683594 156.546875 234.914062 156.101562 232.703125 L 153.007812 218.996094 L 153.007812 264.984375 C 153.007812 265.871094 152.566406 266.3125 151.679688 266.3125 L 150.355469 266.3125 C 147.699219 266.3125 145.488281 264.101562 145.488281 261.890625 L 143.277344 234.472656 M 179.980469 195.117188 C 179.980469 190.695312 183.519531 187.597656 187.5 187.597656 C 191.480469 187.597656 195.015625 190.695312 195.015625 195.117188 L 195.015625 197.328125 C 195.015625 201.308594 191.480469 204.84375 187.5 204.84375 C 183.519531 204.84375 179.980469 201.308594 179.980469 197.328125 L 179.980469 195.117188 M 187.5 234.472656 L 185.289062 261.890625 C 185.289062 264.101562 183.078125 266.3125 180.425781 266.3125 L 179.097656 266.3125 C 178.214844 266.3125 177.769531 265.871094 177.769531 264.984375 L 177.769531 218.996094 L 174.675781 232.703125 C 174.234375 234.914062 172.464844 236.683594 169.8125 236.683594 L 168.042969 236.683594 C 167.601562 236.683594 167.601562 236.683594 167.160156 236.242188 C 167.160156 235.800781 166.714844 235.800781 166.714844 235.355469 L 171.136719 214.574219 C 172.023438 210.152344 176.003906 207.054688 179.980469 207.054688 L 195.015625 207.054688 C 198.996094 207.054688 202.976562 210.152344 203.863281 214.574219 L 208.285156 235.355469 C 208.285156 235.800781 207.839844 235.800781 207.839844 236.242188 C 207.398438 236.683594 207.398438 236.683594 206.957031 236.683594 L 205.1875 236.683594 C 202.535156 236.683594 200.765625 234.914062 200.324219 232.703125 L 197.230469 218.996094 L 197.230469 264.984375 C 197.230469 265.871094 196.785156 266.3125 195.902344 266.3125 L 194.574219 266.3125 C 191.921875 266.3125 189.710938 264.101562 189.710938 261.890625 L 187.5 234.472656 M 224.203125 195.117188 C 224.203125 190.695312 227.742188 187.597656 231.722656 187.597656 C 235.699219 187.597656 239.238281 190.695312 239.238281 195.117188 L 239.238281 197.328125 C 239.238281 201.308594 235.699219 204.84375 231.722656 204.84375 C 227.742188 204.84375 224.203125 201.308594 224.203125 197.328125 L 224.203125 195.117188 M 231.722656 234.472656 L 229.511719 261.890625 C 229.511719 264.101562 227.300781 266.3125 224.644531 266.3125 L 223.320312 266.3125 C 222.433594 266.3125 221.992188 265.871094 221.992188 264.984375 L 221.992188 218.996094 L 218.898438 232.703125 C 218.453125 234.914062 216.6875 236.683594 214.03125 236.683594 L 212.265625 236.683594 C 211.820312 236.683594 211.820312 236.683594 211.378906 236.242188 C 211.378906 235.800781 210.9375 235.800781 210.9375 235.355469 L 215.359375 214.574219 C 216.242188 210.152344 220.222656 207.054688 224.203125 207.054688 L 239.238281 207.054688 C 243.21875 207.054688 247.199219 210.152344 248.082031 214.574219 L 252.503906 235.355469 C 252.503906 235.800781 252.0625 235.800781 252.0625 236.242188 C 251.621094 236.683594 251.621094 236.683594 251.179688 236.683594 L 249.410156 236.683594 C 246.757812 236.683594 244.988281 234.914062 244.546875 232.703125 L 241.449219 218.996094 L 241.449219 264.984375 C 241.449219 265.871094 241.007812 266.3125 240.121094 266.3125 L 238.796875 266.3125 C 236.144531 266.3125 233.933594 264.101562 233.933594 261.890625 L 231.722656 234.472656 M 268.425781 195.117188 C 268.425781 190.695312 271.960938 187.597656 275.941406 187.597656 C 279.921875 187.597656 283.460938 190.695312 283.460938 195.117188 L 283.460938 197.328125 C 283.460938 201.308594 279.921875 204.84375 275.941406 204.84375 C 271.960938 204.84375 268.425781 201.308594 268.425781 197.328125 L 268.425781 195.117188 M 275.941406 234.472656 L 273.730469 261.890625 C 273.730469 264.101562 271.519531 266.3125 268.867188 266.3125 L 267.539062 266.3125 C 266.65625 266.3125 266.214844 265.871094 266.214844 264.984375 L 266.214844 218.996094 L 263.117188 232.703125 C 262.675781 234.914062 260.90625 236.683594 258.253906 236.683594 L 256.484375 236.683594 C 256.042969 236.683594 256.042969 236.683594 255.601562 236.242188 C 255.601562 235.800781 255.15625 235.800781 255.15625 235.355469 L 259.582031 214.574219 C 260.464844 210.152344 264.445312 207.054688 268.425781 207.054688 L 283.460938 207.054688 C 287.441406 207.054688 291.417969 210.152344 292.304688 214.574219 L 296.726562 235.355469 C 296.726562 235.800781 296.285156 235.800781 296.285156 236.242188 C 295.839844 236.683594 295.839844 236.683594 295.398438 236.683594 L 293.628906 236.683594 C 290.976562 236.683594 289.207031 234.914062 288.765625 232.703125 L 285.671875 218.996094 L 285.671875 264.984375 C 285.671875 265.871094 285.226562 266.3125 284.34375 266.3125 L 283.015625 266.3125 C 280.363281 266.3125 278.152344 264.101562 278.152344 261.890625 L 275.941406 234.472656 " clip-rule="nonzero"/></clipPath></defs><g clip-path="url(#3733138c50)"><g clip-path="url(#773911257d)"><path fill="#b67ca0" d="M 76.949219 108.886719 L 298.050781 108.886719 L 298.050781 266.3125 L 76.949219 266.3125 Z M 76.949219 108.886719 " fill-opacity="1" fill-rule="nonzero"/></g></g><g clip-path="url(#992897e6c3)"><g clip-path="url(#d0d207c612)"><path fill="#7d7d7d" d="M 76.949219 108.886719 L 298.050781 108.886719 L 298.050781 266.3125 L 76.949219 266.3125 Z M 76.949219 108.886719 " fill-opacity="1" fill-rule="nonzero"/></g></g></svg>