<svg xmlns="http://www.w3.org/2000/svg" xmlns:xlink="http://www.w3.org/1999/xlink" width="500" zoomAndPan="magnify" viewBox="0 0 375 374.999991" height="500" preserveAspectRatio="xMidYMid meet" version="1.0"><defs><clipPath id="b77a4db8cd"><path d="M 59.257812 100.164062 L 315.742188 100.164062 L 315.742188 275 L 59.257812 275 Z M 59.257812 100.164062 " clip-rule="nonzero"/></clipPath><clipPath id="2db21c9c3f"><path d="M 65.007812 100.164062 C 61.914062 100.164062 59.257812 102.816406 59.257812 105.46875 L 59.257812 177.550781 C 59.257812 180.644531 61.914062 183.300781 64.566406 183.300781 L 98.171875 183.300781 C 100.828125 183.300781 103.480469 180.644531 103.480469 177.550781 L 103.480469 105.914062 C 103.480469 102.816406 100.828125 100.164062 98.171875 100.164062 L 65.007812 100.164062 M 80.042969 105.914062 L 88.445312 105.914062 C 88.886719 105.914062 89.773438 106.355469 89.773438 107.238281 C 89.773438 107.679688 88.886719 108.566406 88.445312 108.566406 L 80.042969 108.566406 C 79.160156 108.566406 78.714844 107.679688 78.714844 107.238281 C 78.714844 106.355469 79.160156 105.914062 80.042969 105.914062 M 72.96875 107.238281 C 72.96875 106.355469 73.851562 105.914062 74.292969 105.914062 C 75.179688 105.914062 76.0625 106.355469 76.0625 107.238281 C 76.0625 107.679688 75.179688 108.566406 74.292969 108.566406 C 73.851562 108.566406 72.96875 107.679688 72.96875 107.238281 M 77.390625 174.898438 L 85.347656 174.898438 C 86.234375 174.898438 87.117188 175.339844 87.117188 176.222656 C 87.117188 177.109375 86.234375 177.550781 85.347656 177.550781 L 77.390625 177.550781 C 76.503906 177.550781 76.0625 177.109375 76.0625 176.222656 C 76.0625 175.339844 76.503906 174.898438 77.390625 174.898438 M 118.074219 100.164062 C 114.976562 100.164062 112.324219 102.816406 112.324219 105.46875 L 112.324219 177.550781 C 112.324219 180.644531 114.976562 183.300781 117.628906 183.300781 L 151.238281 183.300781 C 153.890625 183.300781 156.546875 180.644531 156.546875 177.550781 L 156.546875 105.914062 C 156.546875 102.816406 153.890625 100.164062 151.238281 100.164062 L 118.074219 100.164062 M 133.109375 105.914062 L 141.511719 105.914062 C 141.953125 105.914062 142.835938 106.355469 142.835938 107.238281 C 142.835938 107.679688 141.953125 108.566406 141.511719 108.566406 L 133.109375 108.566406 C 132.222656 108.566406 131.78125 107.679688 131.78125 107.238281 C 131.78125 106.355469 132.222656 105.914062 133.109375 105.914062 M 126.03125 107.238281 C 126.03125 106.355469 126.917969 105.914062 127.359375 105.914062 C 128.242188 105.914062 129.128906 106.355469 129.128906 107.238281 C 129.128906 107.679688 128.242188 108.566406 127.359375 108.566406 C 126.917969 108.566406 126.03125 107.679688 126.03125 107.238281 M 130.453125 174.898438 L 138.414062 174.898438 C 139.300781 174.898438 140.183594 175.339844 140.183594 176.222656 C 140.183594 177.109375 139.300781 177.550781 138.414062 177.550781 L 130.453125 177.550781 C 129.570312 177.550781 129.128906 177.109375 129.128906 176.222656 C 129.128906 175.339844 129.570312 174.898438 130.453125 174.898438 M 171.136719 100.164062 C 168.042969 100.164062 165.390625 102.816406 165.390625 105.46875 L 165.390625 177.550781 C 165.390625 180.644531 168.042969 183.300781 170.695312 183.300781 L 204.304688 183.300781 C 206.957031 183.300781 209.609375 180.644531 209.609375 177.550781 L 209.609375 105.914062 C 209.609375 102.816406 206.957031 100.164062 204.304688 100.164062 L 171.136719 100.164062 M 186.171875 105.914062 L 194.574219 105.914062 C 195.015625 105.914062 195.902344 106.355469 195.902344 107.238281 C 195.902344 107.679688 195.015625 108.566406 194.574219 108.566406 L 186.171875 108.566406 C 185.289062 108.566406 184.847656 107.679688 184.847656 107.238281 C 184.847656 106.355469 185.289062 105.914062 186.171875 105.914062 M 179.097656 107.238281 C 179.097656 106.355469 179.980469 105.914062 180.425781 105.914062 C 181.308594 105.914062 182.195312 106.355469 182.195312 107.238281 C 182.195312 107.679688 181.308594 108.566406 180.425781 108.566406 C 179.980469 108.566406 179.097656 107.679688 179.097656 107.238281 M 183.519531 174.898438 L 191.480469 174.898438 C 192.363281 174.898438 193.25 175.339844 193.25 176.222656 C 193.25 177.109375 192.363281 177.550781 191.480469 177.550781 L 183.519531 177.550781 C 182.636719 177.550781 182.195312 177.109375 182.195312 176.222656 C 182.195312 175.339844 182.636719 174.898438 183.519531 174.898438 M 224.203125 100.164062 C 221.109375 100.164062 218.453125 102.816406 218.453125 105.46875 L 218.453125 177.550781 C 218.453125 180.644531 221.109375 183.300781 223.761719 183.300781 L 257.371094 183.300781 C 260.023438 183.300781 262.675781 180.644531 262.675781 177.550781 L 262.675781 105.914062 C 262.675781 102.816406 260.023438 100.164062 257.371094 100.164062 L 224.203125 100.164062 M 239.238281 105.914062 L 247.640625 105.914062 C 248.082031 105.914062 248.96875 106.355469 248.96875 107.238281 C 248.96875 107.679688 248.082031 108.566406 247.640625 108.566406 L 239.238281 108.566406 C 238.355469 108.566406 237.910156 107.679688 237.910156 107.238281 C 237.910156 106.355469 238.355469 105.914062 239.238281 105.914062 M 232.164062 107.238281 C 232.164062 106.355469 233.046875 105.914062 233.488281 105.914062 C 234.375 105.914062 235.257812 106.355469 235.257812 107.238281 C 235.257812 107.679688 234.375 108.566406 233.488281 108.566406 C 233.046875 108.566406 232.164062 107.679688 232.164062 107.238281 M 236.585938 174.898438 L 244.546875 174.898438 C 245.429688 174.898438 246.3125 175.339844 246.3125 176.222656 C 246.3125 177.109375 245.429688 177.550781 244.546875 177.550781 L 236.585938 177.550781 C 235.699219 177.550781 235.257812 177.109375 235.257812 176.222656 C 235.257812 175.339844 235.699219 174.898438 236.585938 174.898438 M 277.269531 100.164062 C 274.171875 100.164062 271.519531 102.816406 271.519531 105.46875 L 271.519531 177.550781 C 271.519531 180.644531 274.171875 183.300781 276.828125 183.300781 L 310.433594 183.300781 C 313.085938 183.300781 315.742188 180.644531 315.742188 177.550781 L 315.742188 105.914062 C 315.742188 102.816406 313.085938 100.164062 310.433594 100.164062 L 277.269531 100.164062 M 292.304688 105.914062 L 300.707031 105.914062 C 301.148438 105.914062 302.03125 106.355469 302.03125 107.238281 C 302.03125 107.679688 301.148438 108.566406 300.707031 108.566406 L 292.304688 108.566406 C 291.417969 108.566406 290.976562 107.679688 290.976562 107.238281 C 290.976562 106.355469 291.417969 105.914062 292.304688 105.914062 M 285.226562 107.238281 C 285.226562 106.355469 286.113281 105.914062 286.554688 105.914062 C 287.441406 105.914062 288.324219 106.355469 288.324219 107.238281 C 288.324219 107.679688 287.441406 108.566406 286.554688 108.566406 C 286.113281 108.566406 285.226562 107.679688 285.226562 107.238281 M 289.652344 174.898438 L 297.609375 174.898438 C 298.496094 174.898438 299.378906 175.339844 299.378906 176.222656 C 299.378906 177.109375 298.496094 177.550781 297.609375 177.550781 L 289.652344 177.550781 C 288.765625 177.550781 288.324219 177.109375 288.324219 176.222656 C 288.324219 175.339844 288.765625 174.898438 289.652344 174.898438 M 65.007812 192.144531 C 61.914062 192.144531 59.257812 194.796875 59.257812 197.449219 L 59.257812 269.53125 C 59.257812 272.625 61.914062 275.277344 64.566406 275.277344 L 98.171875 275.277344 C 100.828125 275.277344 103.480469 272.625 103.480469 269.53125 L 103.480469 197.890625 C 103.480469 194.796875 100.828125 192.144531 98.171875 192.144531 L 65.007812 192.144531 M 80.042969 197.890625 L 88.445312 197.890625 C 88.886719 197.890625 89.773438 198.335938 89.773438 199.21875 C 89.773438 199.660156 88.886719 200.546875 88.445312 200.546875 L 80.042969 200.546875 C 79.160156 200.546875 78.714844 199.660156 78.714844 199.21875 C 78.714844 198.335938 79.160156 197.890625 80.042969 197.890625 M 72.96875 199.21875 C 72.96875 198.335938 73.851562 197.890625 74.292969 197.890625 C 75.179688 197.890625 76.0625 198.335938 76.0625 199.21875 C 76.0625 199.660156 75.179688 200.546875 74.292969 200.546875 C 73.851562 200.546875 72.96875 199.660156 72.96875 199.21875 M 77.390625 266.875 L 85.347656 266.875 C 86.234375 266.875 87.117188 267.320312 87.117188 268.203125 C 87.117188 269.085938 86.234375 269.53125 85.347656 269.53125 L 77.390625 269.53125 C 76.503906 269.53125 76.0625 269.085938 76.0625 268.203125 C 76.0625 267.320312 76.503906 266.875 77.390625 266.875 M 118.074219 192.144531 C 114.976562 192.144531 112.324219 194.796875 112.324219 197.449219 L 112.324219 269.53125 C 112.324219 272.625 114.976562 275.277344 117.628906 275.277344 L 151.238281 275.277344 C 153.890625 275.277344 156.546875 272.625 156.546875 269.53125 L 156.546875 197.890625 C 156.546875 194.796875 153.890625 192.144531 151.238281 192.144531 L 118.074219 192.144531 M 133.109375 197.890625 L 141.511719 197.890625 C 141.953125 197.890625 142.835938 198.335938 142.835938 199.21875 C 142.835938 199.660156 141.953125 200.546875 141.511719 200.546875 L 133.109375 200.546875 C 132.222656 200.546875 131.78125 199.660156 131.78125 199.21875 C 131.78125 198.335938 132.222656 197.890625 133.109375 197.890625 M 126.03125 199.21875 C 126.03125 198.335938 126.917969 197.890625 127.359375 197.890625 C 128.242188 197.890625 129.128906 198.335938 129.128906 199.21875 C 129.128906 199.660156 128.242188 200.546875 127.359375 200.546875 C 126.917969 200.546875 126.03125 199.660156 126.03125 199.21875 M 130.453125 266.875 L 138.414062 266.875 C 139.300781 266.875 140.183594 267.320312 140.183594 268.203125 C 140.183594 269.085938 139.300781 269.53125 138.414062 269.53125 L 130.453125 269.53125 C 129.570312 269.53125 129.128906 269.085938 129.128906 268.203125 C 129.128906 267.320312 129.570312 266.875 130.453125 266.875 " clip-rule="nonzero"/></clipPath><clipPath id="15fac6f25d"><path d="M 165.390625 192.144531 L 315.742188 192.144531 L 315.742188 275 L 165.390625 275 Z M 165.390625 192.144531 " clip-rule="nonzero"/></clipPath><clipPath id="6a1bfcb456"><path d="M 171.136719 192.144531 C 168.042969 192.144531 165.390625 194.796875 165.390625 197.449219 L 165.390625 269.53125 C 165.390625 272.625 168.042969 275.277344 170.695312 275.277344 L 204.304688 275.277344 C 206.957031 275.277344 209.609375 272.625 209.609375 269.53125 L 209.609375 197.890625 C 209.609375 194.796875 206.957031 192.144531 204.304688 192.144531 L 171.136719 192.144531 M 186.171875 197.890625 L 194.574219 197.890625 C 195.015625 197.890625 195.902344 198.335938 195.902344 199.21875 C 195.902344 199.660156 195.015625 200.546875 194.574219 200.546875 L 186.171875 200.546875 C 185.289062 200.546875 184.847656 199.660156 184.847656 199.21875 C 184.847656 198.335938 185.289062 197.890625 186.171875 197.890625 M 179.097656 199.21875 C 179.097656 198.335938 179.980469 197.890625 180.425781 197.890625 C 181.308594 197.890625 182.195312 198.335938 182.195312 199.21875 C 182.195312 199.660156 181.308594 200.546875 180.425781 200.546875 C 179.980469 200.546875 179.097656 199.660156 179.097656 199.21875 M 183.519531 266.875 L 191.480469 266.875 C 192.363281 266.875 193.25 267.320312 193.25 268.203125 C 193.25 269.085938 192.363281 269.53125 191.480469 269.53125 L 183.519531 269.53125 C 182.636719 269.53125 182.195312 269.085938 182.195312 268.203125 C 182.195312 267.320312 182.636719 266.875 183.519531 266.875 M 224.203125 192.144531 C 221.109375 192.144531 218.453125 194.796875 218.453125 197.449219 L 218.453125 269.53125 C 218.453125 272.625 221.109375 275.277344 223.761719 275.277344 L 257.371094 275.277344 C 260.023438 275.277344 262.675781 272.625 262.675781 269.53125 L 262.675781 197.890625 C 262.675781 194.796875 260.023438 192.144531 257.371094 192.144531 L 224.203125 192.144531 M 239.238281 197.890625 L 247.640625 197.890625 C 248.082031 197.890625 248.96875 198.335938 248.96875 199.21875 C 248.96875 199.660156 248.082031 200.546875 247.640625 200.546875 L 239.238281 200.546875 C 238.355469 200.546875 237.910156 199.660156 237.910156 199.21875 C 237.910156 198.335938 238.355469 197.890625 239.238281 197.890625 M 232.164062 199.21875 C 232.164062 198.335938 233.046875 197.890625 233.488281 197.890625 C 234.375 197.890625 235.257812 198.335938 235.257812 199.21875 C 235.257812 199.660156 234.375 200.546875 233.488281 200.546875 C 233.046875 200.546875 232.164062 199.660156 232.164062 199.21875 M 236.585938 266.875 L 244.546875 266.875 C 245.429688 266.875 246.3125 267.320312 246.3125 268.203125 C 246.3125 269.085938 245.429688 269.53125 244.546875 269.53125 L 236.585938 269.53125 C 235.699219 269.53125 235.257812 269.085938 235.257812 268.203125 C 235.257812 267.320312 235.699219 266.875 236.585938 266.875 M 277.269531 192.144531 C 274.171875 192.144531 271.519531 194.796875 271.519531 197.449219 L 271.519531 269.53125 C 271.519531 272.625 274.171875 275.277344 276.828125 275.277344 L 310.433594 275.277344 C 313.085938 275.277344 315.742188 272.625 315.742188 269.53125 L 315.742188 197.890625 C 315.742188 194.796875 313.085938 192.144531 310.433594 192.144531 L 277.269531 192.144531 M 292.304688 197.890625 L 300.707031 197.890625 C 301.148438 197.890625 302.03125 198.335938 302.03125 199.21875 C 302.03125 199.660156 301.148438 200.546875 300.707031 200.546875 L 292.304688 200.546875 C 291.417969 200.546875 290.976562 199.660156 290.976562 199.21875 C 290.976562 198.335938 291.417969 197.890625 292.304688 197.890625 M 285.226562 199.21875 C 285.226562 198.335938 286.113281 197.890625 286.554688 197.890625 C 287.441406 197.890625 288.324219 198.335938 288.324219 199.21875 C 288.324219 199.660156 287.441406 200.546875 286.554688 200.546875 C 286.113281 200.546875 285.226562 199.660156 285.226562 199.21875 M 289.652344 266.875 L 297.609375 266.875 C 298.496094 266.875 299.378906 267.320312 299.378906 268.203125 C 299.378906 269.085938 298.496094 269.53125 297.609375 269.53125 L 289.652344 269.53125 C 288.765625 269.53125 288.324219 269.085938 288.324219 268.203125 C 288.324219 267.320312 288.765625 266.875 289.652344 266.875 " clip-rule="nonzero"/></clipPath></defs><g clip-path="url(#b77a4db8cd)"><g clip-path="url(#2db21c9c3f)"><path fill="#004aad" d="M 59.257812 100.164062 L 315.742188 100.164062 L 315.742188 274.835938 L 59.257812 274.835938 Z M 59.257812 100.164062 " fill-opacity="1" fill-rule="nonzero"/></g></g><g clip-path="url(#15fac6f25d)"><g clip-path="url(#6a1bfcb456)"><path fill="#7d7d7d" d="M 59.257812 100.164062 L 315.742188 100.164062 L 315.742188 274.835938 L 59.257812 274.835938 Z M 59.257812 100.164062 " fill-opacity="1" fill-rule="nonzero"/></g></g></svg>